HIERARCHY
ROOT Hips
{
	OFFSET 0.000000 0.000000 0.000000 
	CHANNELS 6 Xposition Yposition Zposition Yrotation Zrotation Xrotation 
	JOINT Lumbar
	{
		OFFSET 0.000000 0.000000 0.000000 
		CHANNELS 3 Zrotation Xrotation Yrotation
		JOINT Neck
		{
			OFFSET 0.000000 0.445665 0.000000 
			CHANNELS 3 Zrotation Xrotation Yrotation
			End Site
			{
				OFFSET 0.000000 0.227535 0.000000 
			}
		}
		JOINT RightShoulder
		{
			OFFSET 0.019635 0.377685 0.194865 
			CHANNELS 3 Zrotation Xrotation Yrotation
			JOINT RightElbow
			{
				OFFSET 0.000000 -0.243375 0.000000 
				CHANNELS 2 Zrotation Yrotation
				JOINT RightWrist
				{
					OFFSET 0.000000 -0.264825 0.000000 
					CHANNELS 2 Zrotation Xrotation
					End Site
					{
						OFFSET 0.006600 -0.176220 0.000990 
					}
				}
			}
		}
		JOINT LeftShoulder
		{
			OFFSET 0.019635 0.377685 -0.194865 
			CHANNELS 3 Zrotation Xrotation Yrotation
			JOINT LeftElbow
			{
				OFFSET 0.000000 -0.243375 0.000000 
				CHANNELS 2 Zrotation Yrotation
				JOINT LeftWrist
				{
					OFFSET 0.000000 -0.264825 0.000000 
					CHANNELS 2 Zrotation Xrotation
					End Site
					{
						OFFSET 0.006600 -0.176220 -0.000990 
					}
				}
			}
		}
	}
	JOINT RightHip
	{
		OFFSET 0.052140 -0.069960 0.075570 
		CHANNELS 3 Zrotation Xrotation Yrotation
		JOINT RightKnee
		{
			OFFSET 0.000000 -0.402270 0.000000 
			CHANNELS 1 Zrotation
			JOINT RightAnkle
			{
				OFFSET 0.000000 -0.404085 0.000000 
				CHANNELS 3 Zrotation Xrotation Yrotation
				End Site
				{
					OFFSET 0.204105 -0.089430 0.008415 
				}
			}
		}
	}
	JOINT LeftHip
	{
		OFFSET 0.052140 -0.069960 -0.075570 
		CHANNELS 3 Zrotation Xrotation Yrotation
		JOINT LeftKnee
		{
			OFFSET 0.000000 -0.402270 0.000000 
			CHANNELS 1 Zrotation
			JOINT LeftAnkle
			{
				OFFSET 0.000000 -0.404085 0.000000 
				CHANNELS 3 Zrotation Xrotation Yrotation
				End Site
				{
					OFFSET 0.204105 -0.089430 -0.008415 
				}
			}
		}
	}
}
MOTION
Frames: 31
Frame Time: 0.02
2e-05 -0.00033 -4e-05 -170.83577 -41.21403 -2.16407 48.27729 2.56002 -5.72994 1.1218 0.06839 -0.12306 -35.30953 -9.93322 -9.51127 25.47635 94.17043 5.74654 1.79263 -46.68087 14.65951 -15.84782 42.27605 -111.53821 20.0039 -1.17287 45.61857 -1.54785 -3.85393 -19.01754 -6.52068 -3.5025 -2.43051 49.90802 3.29364 4.57829 -25.22146 -6.61562 3.08565 2.27003
0.0007 -0.00034 -0.0002 -170.91152 -41.25191 -2.1565 48.24069 2.53143 -5.71315 1.67868 0.09321 -0.12417 -32.76217 -9.97265 -8.8691 25.77948 93.5911 5.43584 1.71026 -43.60372 14.44317 -14.68812 42.34852 -110.53768 19.00306 -1.24259 45.72423 -1.56037 -3.91445 -19.01963 -6.51443 -3.49128 -2.42708 50.00333 3.33301 4.74357 -25.22673 -6.60892 3.07042 2.2587
0.00138 -0.00036 -0.00035 -170.987 -41.28964 -2.14894 48.20413 2.50292 -5.69622 2.23449 0.11785 -0.12528 -30.2198 -10.01211 -8.2272 26.08225 93.01335 5.12619 1.62808 -40.53196 14.22733 -13.53206 42.42075 -109.53915 18.00462 -1.31205 45.82957 -1.57285 -3.97478 -19.02171 -6.50821 -3.4801 -2.42367 50.09837 3.37216 4.90794 -25.23197 -6.60224 3.05529 2.24743
0.00206 -0.00038 -0.00051 -171.06253 -41.32741 -2.1414 48.16763 2.47442 -5.67945 2.78975 0.14258 -0.12639 -27.67981 -10.05146 -7.58665 26.3846 92.43579 4.8165 1.54594 -37.46361 14.01163 -12.37589 42.49304 -108.54149 17.00673 -1.38154 45.93492 -1.58534 -4.03512 -19.02379 -6.50197 -3.46891 -2.42026 50.19339 3.41138 5.07264 -25.23722 -6.59556 3.04012 2.23615
0.00274 -0.00039 -0.00066 -171.13826 -41.36532 -2.13385 48.13111 2.44584 -5.6629 3.34586 0.16752 -0.12751 -25.13594 -10.09065 -6.94673 26.68695 91.85664 4.50564 1.46365 -34.39142 13.79546 -11.21622 42.56543 -107.54236 16.00676 -1.45131 46.04053 -1.59785 -4.09564 -19.02588 -6.49571 -3.45768 -2.41683 50.28865 3.45087 5.23843 -25.24252 -6.58885 3.02484 2.22479
0.00342 -0.00041 -0.00081 -171.21317 -41.40268 -2.12627 48.09445 2.41747 -5.64517 3.901 0.19151 -0.12862 -22.59691 -10.13066 -6.30082 26.9905 91.28184 4.19847 1.38173 -31.32078 13.58033 -10.0679 42.63727 -106.5452 15.01163 -1.52012 46.14529 -1.61029 -4.15557 -19.02792 -6.48957 -3.44661 -2.41347 50.38324 3.48932 5.39981 -25.24766 -6.58225 3.00999 2.21371
0.0041 -0.00043 -0.00097 -171.28983 -41.44114 -2.11876 48.05815 2.38872 -5.62982 4.45743 0.21744 -0.12973 -20.05093 -10.16912 -5.66705 27.29168 90.69914 3.88449 1.29911 -28.25044 13.36338 -8.89764 42.71047 -105.54494 14.00772 -1.59075 46.25174 -1.62286 -4.21662 -19.03008 -6.48319 -3.43522 -2.40997 50.4791 3.52979 5.56979 -25.25308 -6.57544 2.99433 2.2021
0.00478 -0.00044 -0.00112 -171.36455 -41.4785 -2.11118 48.02145 2.36033 -5.61232 5.01275 0.24149 -0.13084 -17.51138 -10.20876 -5.02323 27.59437 90.12331 3.57631 1.21721 -25.17977 13.14806 -7.7483 42.7818 -104.54798 13.01215 -1.65977 46.35647 -1.6353 -4.27664 -19.03212 -6.47704 -3.42415 -2.40662 50.57372 3.56843 5.73203 -25.25828 -6.56882 2.97937 2.19095
0.00546 -0.00045 -0.00127 -171.43822 -41.51489 -2.10353 47.98452 2.33232 -5.59194 5.56676 0.26356 -0.13195 -14.97804 -10.25085 -4.36201 27.90181 89.55725 3.277 1.13585 -22.1069 12.9348 -6.62131 42.85334 -103.55268 12.02528 -1.72659 46.45977 -1.64764 -4.33544 -19.03403 -6.47111 -3.41335 -2.40337 50.66714 3.6047 5.88404 -25.26306 -6.56241 2.96545 2.18049
0.00615 -0.00048 -0.00144 -171.52192 -41.55798 -2.09635 47.94968 2.30193 -5.58739 6.12846 0.29798 -0.13308 -12.40387 -10.28188 -3.78548 28.19068 88.9391 2.93199 1.05035 -19.04109 12.70989 -5.35601 42.93116 -102.54063 10.98384 -1.80537 46.57334 -1.66071 -4.40136 -19.03671 -6.46376 -3.40063 -2.39927 50.76841 3.65422 6.09258 -25.26978 -6.55472 2.94608 2.16642
0.00681 -0.00047 -0.00157 -171.58191 -41.58623 -2.08813 47.90994 2.27669 -5.54992 6.67374 0.30577 -0.13417 -9.9196 -10.33431 -3.04038 28.51303 88.42829 2.68002 0.97424 -15.96466 12.50946 -4.38882 42.99095 -101.56871 10.06056 -1.85938 46.66392 -1.67217 -4.45222 -19.03776 -6.4595 -3.39222 -2.39713 50.8525 3.67601 6.18339 -25.27272 -6.54979 2.93786 2.15975
0.00736 -0.00032 -0.00159 -171.59681 -41.57886 -2.0777 47.86029 2.26472 -5.41721 7.175 0.24447 -0.13509 -7.65355 -10.46165 -1.74862 28.975 88.22329 2.70911 0.92015 -12.82376 12.37778 -4.19635 43.0405 -100.67198 9.44214 -1.84072 46.70193 -1.6796 -4.46105 -19.03564 -6.46302 -3.39352 -2.39907 50.89402 3.61911 5.93513 -25.26314 -6.55206 2.96331 2.17537
0.00788 -0.00012 -0.00157 -171.58394 -41.55542 -2.06621 47.80488 2.25812 -5.25227 7.65931 0.15571 -0.13603 -5.48419 -10.60724 -0.30616 29.46159 88.11551 2.82379 0.87706 -9.68048 12.27066 -4.31165 43.06511 -99.82475 8.9478 -1.79802 46.71502 -1.68521 -4.45451 -19.03246 -6.46976 -3.3996 -2.40325 50.91735 3.53492 5.57152 -25.25047 -6.55716 2.99937 2.19805
0.0084 6e-05 -0.00155 -171.5711 -41.53634 -2.05467 47.75005 2.24958 -5.10536 8.15111 0.07692 -0.13695 -3.28764 -10.73422 1.01623 29.90598 87.96668 2.88642 0.83025 -6.55895 12.15089 -4.31389 43.07495 -98.97412 8.40699 -1.76946 46.73252 -1.69159 -4.45598 -19.02786 -6.47547 -3.40477 -2.4072 50.94611 3.46478 5.27128 -25.24019 -6.5612 3.02857 2.21623
0.00896 0.00024 -0.00158 -171.61248 -41.53067 -2.045 47.7046 2.2388 -4.94443 8.64499 0.0086 -0.13774 -1.01568 -10.90577 2.56897 30.48205 87.83966 3.01739 0.77441 -3.34265 12.03628 -4.20191 43.19314 -98.03162 7.81699 -1.72749 46.77873 -1.69877 -4.45471 -19.02794 -6.47938 -3.40431 -2.40768 50.98713 3.38724 4.925 -25.22441 -6.56432 3.06644 2.23992
0.00945 0.00043 -0.00151 -171.53293 -41.49195 -2.03165 47.63726 2.23414 -4.80466 9.129 -0.08797 -0.13902 1.07017 -10.9876 3.66227 30.78878 87.64655 3.01044 0.74455 -0.33263 11.91821 -4.40287 43.08199 -97.30646 7.36833 -1.70749 46.75978 -1.70315 -4.45348 -19.02223 -6.4878 -3.41708 -2.41608 50.9979 3.31911 4.64673 -25.22101 -6.56998 3.08869 2.25377
0.00976 0.00073 -0.00115 -171.1384 -41.37728 -2.00389 47.51955 2.2431 -4.73434 9.60245 -0.25642 -0.13984 2.7172 -10.82752 3.58153 30.35483 87.63562 2.74208 0.74302 2.18567 11.7722 -5.37182 42.32496 -97.04374 7.19587 -1.75631 46.56338 -1.70757 -4.47474 -18.96585 -6.50756 -3.46137 -2.44401 50.93328 3.2796 4.5901 -25.2384 -6.58252 3.06587 2.23885
0.01 0.00103 -0.00069 -170.6208 -41.22796 -1.97298 47.37849 2.25816 -4.68562 10.0639 -0.45225 -0.14146 4.16989 -10.57458 3.00944 29.64847 87.49279 2.30933 0.77359 4.48003 11.62427 -6.64725 41.34188 -97.0188 7.17524 -1.82766 46.30374 -1.70882 -4.494 -18.91105 -6.53164 -3.51906 -2.47991 50.83827 3.25115 4.60522 -25.27088 -6.5974 3.02678 2.21372
0.01028 0.00131 -0.00029 -170.15171 -41.08682 -1.94687 47.24232 2.27198 -4.62528 10.52301 -0.63512 -0.14394 5.67891 -10.35742 2.57497 29.05934 87.14213 1.85513 0.81782 6.82756 11.48519 -7.798 40.4741 -96.97079 7.14213 -1.88722 46.07444 -1.70554 -4.50081 -18.87732 -6.55421 -3.57374 -2.51366 50.75468 3.22042 4.58343 -25.30591 -6.61085 2.99476 2.1932
0.01053 0.00169 0.0002 -169.7133 -40.97632 -1.90778 47.12972 2.28044 -4.57241 11.01567 -0.82106 -0.14139 7.32299 -10.16809 2.50407 28.49385 87.88198 1.79497 0.74844 9.38703 11.31285 -8.90452 39.55082 -96.57674 6.88176 -1.95247 45.83425 -1.72356 -4.55978 -18.74805 -6.57571 -3.61751 -2.54232 50.68018 3.17756 4.57441 -25.30164 -6.626 2.9647 2.17318
0.01081 0.00186 0.00052 -169.18172 -40.79493 -1.89338 46.96302 2.30033 -4.50829 11.43426 -1.00685 -0.14935 8.63662 -9.89841 1.56156 27.82032 86.37228 0.89261 0.91655 11.44349 11.20957 -10.16356 38.69174 -96.94539 7.12038 -2.01155 45.60613 -1.70128 -4.51449 -18.82259 -6.5995 -3.6847 -2.58213 50.58023 3.1624 4.55905 -25.38219 -6.63808 2.92626 2.14944
0.01122 0.0015 0.00041 -168.42666 -40.41856 -1.96193 46.64915 2.36005 -4.41906 11.66421 -1.18449 -0.18732 9.12083 -9.4333 -1.69113 26.86212 78.22657 -2.44921 1.78929 12.23524 11.29202 -11.83514 38.04926 -99.48849 8.7776 -2.04905 45.39068 -1.52624 -4.13809 -19.41791 -6.6368 -3.83487 -2.66257 50.41328 3.22595 4.49312 -25.6982 -6.64158 2.87118 2.11933
0.01165 0.00092 0.00012 -167.58168 -39.9738 -2.05294 46.28277 2.42939 -4.31617 11.81737 -1.36109 -0.2356 9.27253 -8.89195 -5.7899 25.81462 67.91457 -6.59969 2.88913 12.51468 11.44454 -13.63284 37.48286 -102.772 10.91834 -2.08027 45.19556 -1.31785 -3.66245 -20.22322 -6.67499 -4.00466 -2.75207 50.22251 3.31623 4.42094 -26.09749 -6.64184 2.80778 2.08559
0.01204 0.00041 -0.00012 -166.77543 -39.56523 -2.12434 45.94214 2.48766 -4.21191 11.99773 -1.5387 -0.27838 9.55426 -8.38016 -9.49992 24.8423 58.88267 -10.28557 3.84799 12.98415 11.56891 -15.33131 36.89152 -105.62704 12.78377 -2.11284 45.01601 -1.15343 -3.26432 -20.96336 -6.70696 -4.1506 -2.82931 50.04564 3.39118 4.36349 -26.45626 -6.64319 2.74635 2.05252
0.01253 -0 -0.00022 -165.97333 -39.13295 -2.23485 45.59083 2.57372 -4.139 12.21155 -1.71502 -0.32469 9.92017 -7.87755 -13.28798 23.71337 48.56404 -14.40724 4.96812 13.62987 11.67921 -17.22928 36.24929 -108.85857 14.88197 -2.14931 44.733 -0.8705 -2.74005 -21.58757 -6.76242 -4.35778 -2.93995 49.85528 3.4799 4.26185 -26.82952 -6.64608 2.69162 2.02304
0.01282 -0.00066 -0.00065 -165.14354 -38.73543 -2.26986 45.25196 2.60498 -3.99901 12.33584 -1.89343 -0.36602 10.03178 -7.35028 -17.05403 22.89428 40.45558 -17.78587 5.805 13.78547 11.83351 -18.72301 35.73696 -111.50397 16.61722 -2.1799 44.66677 -0.82246 -2.4415 -22.48831 -6.77062 -4.44475 -2.98465 49.68704 3.5462 4.24532 -27.18885 -6.64518 2.62164 1.98561
0.01265 -0.00207 -0.00195 -164.25444 -38.44073 -2.08576 44.94011 2.475 -3.66135 12.247 -2.07735 -0.3917 9.5488 -6.67462 -21.02497 22.9418 38.59948 -19.13782 5.81197 12.75423 12.11086 -19.19923 35.54068 -112.11418 17.14671 -2.15867 45.23179 -1.46669 -2.91134 -24.22933 -6.63481 -4.16984 -2.83118 49.59202 3.54389 4.50454 -27.51781 -6.63269 2.50769 1.92506
0.01226 -0.00371 -0.00358 -163.34254 -38.18537 -1.82587 44.64641 2.29096 -3.25897 12.06811 -2.26319 -0.4119 8.82006 -5.99416 -24.86264 23.30675 39.10261 -19.67729 5.52493 11.24381 12.42793 -19.24312 35.47766 -112.13973 17.30461 -2.13673 46.00736 -2.34203 -3.59284 -26.21825 -6.45366 -3.77754 -2.61337 49.51912 3.51826 4.84235 -27.82457 -6.61684 2.37949 1.85709
0.0119 -0.00518 -0.00507 -162.44438 -37.91866 -1.60403 44.35782 2.13657 -2.8971 11.92022 -2.44857 -0.43419 8.18433 -5.38322 -28.43763 23.53592 38.79062 -20.43454 5.36658 9.92315 12.71283 -19.39251 35.37113 -112.60148 17.69382 -2.14166 46.66241 -3.08812 -4.09367 -28.00869 -6.30221 -3.4559 -2.43436 49.43205 3.50312 5.11758 -28.12261 -6.6038 2.26042 1.79392
0.0118 -0.00695 -0.00651 -161.52701 -37.62201 -1.36773 44.01125 1.9609 -2.49006 11.81071 -2.6329 -0.45852 7.6051 -4.49164 -33.3709 23.72951 37.36522 -21.83633 5.23491 8.69059 13.05423 -19.91165 35.19706 -112.41876 17.85603 -2.04178 47.42375 -3.93467 -4.93289 -30.16557 -6.11322 -3.06342 -2.2162 49.36128 3.48862 5.50439 -28.5026 -6.58531 2.1298 1.72458
0.01113 -0.00813 -0.00813 -160.64756 -37.39791 -1.14329 43.79011 1.81681 -2.15925 11.60189 -2.819 -0.47718 6.86751 -4.17648 -35.47783 24.0694 38.78785 -21.72125 4.97744 7.18263 13.29342 -19.58007 35.19193 -113.36795 18.37185 -2.15074 48.01249 -4.62811 -5.13742 -31.61936 -5.99062 -2.78839 -2.06308 49.2624 3.46784 5.6796 -28.70599 -6.57731 2.02001 1.66638
